<svg width="219" height="58" viewBox="0 0 219 58" fill="none" xmlns="http://www.w3.org/2000/svg">
<path d="M0 2.85908C0 1.28005 1.28005 0 2.85907 0H215.574C217.153 0 218.433 1.28005 218.433 2.85907V54.3224C218.433 55.9014 217.153 57.1815 215.574 57.1815H2.85907C1.28005 57.1815 0 55.9014 0 54.3224V2.85908Z" fill="white"/>
<path d="M87.4888 25.2358H75.4941V31.5849H89.1641V36.0243H70.4517V11.3313H88.561V15.7037H75.4941V20.9472H87.4888V25.2358Z" fill="black"/>
<path d="M109.605 36.0243H103.34L98.6493 27.6146L93.6906 36.0243H87.6932L95.6338 23.4433L88.0785 11.3313H94.2434L98.6493 19.3557L103.172 11.3313H109.136L101.581 23.2423L109.605 36.0243Z" fill="black"/>
<path d="M118.169 32.4561C119.386 32.4561 120.375 32.322 121.134 32.054C122.575 31.5403 123.295 30.5854 123.295 29.1893C123.295 28.3741 122.938 27.7431 122.223 27.2963C121.508 26.8608 120.386 26.4755 118.856 26.1404L116.243 25.5541C113.674 24.9733 111.898 24.3423 110.915 23.6611C109.251 22.5219 108.419 20.7406 108.419 18.3171C108.419 16.1057 109.223 14.2686 110.832 12.8055C112.44 11.3425 114.802 10.611 117.918 10.611C120.52 10.611 122.737 11.3034 124.569 12.6883C126.411 14.0619 127.377 16.0611 127.467 18.6856H122.508C122.419 17.2002 121.771 16.1448 120.565 15.5194C119.761 15.1062 118.761 14.8996 117.566 14.8996C116.237 14.8996 115.176 15.1676 114.383 15.7037C113.59 16.2398 113.194 16.988 113.194 17.9485C113.194 18.8308 113.585 19.4897 114.366 19.9253C114.869 20.2157 115.941 20.5563 117.583 20.9472L121.838 21.9691C123.703 22.4158 125.11 23.0133 126.06 23.7616C127.534 24.9231 128.271 26.6039 128.271 28.804C128.271 31.06 127.405 32.9363 125.674 34.4328C123.954 35.9182 121.52 36.6609 118.37 36.6609C115.154 36.6609 112.624 35.9294 110.781 34.4663C108.939 32.9921 108.017 30.9707 108.017 28.402H112.942C113.099 29.53 113.406 30.3732 113.864 30.9316C114.701 31.9479 116.137 32.4561 118.169 32.4561Z" fill="black"/>
<path d="M146.082 34.1816C144.239 35.868 141.883 36.7112 139.012 36.7112C135.461 36.7112 132.669 35.572 130.636 33.2937C128.604 31.0042 127.587 27.8659 127.587 23.8788C127.587 19.5679 128.743 16.2453 131.055 13.9112C133.065 11.8786 135.623 10.8622 138.728 10.8622C142.882 10.8622 145.92 12.2248 147.841 14.9498C148.902 16.4799 149.472 18.0155 149.55 19.5567H144.39C144.055 18.3729 143.625 17.4794 143.1 16.8763C142.162 15.8042 140.771 15.2681 138.929 15.2681C137.052 15.2681 135.573 16.0276 134.489 17.5464C133.406 19.0542 132.864 21.1929 132.864 23.9626C132.864 26.7323 133.434 28.8096 134.573 30.1945C135.723 31.5682 137.181 32.255 138.945 32.255C140.755 32.255 142.134 31.6631 143.083 30.4793C143.608 29.8427 144.044 28.8878 144.39 27.6146H149.499C149.053 30.3062 147.914 32.4951 146.082 34.1816Z" fill="black"/>
<path d="M167.21 25.2358H155.215V31.5849H168.885V36.0243H150.173V11.3313H168.282V15.7037H155.215V20.9472H167.21V25.2358Z" fill="black"/>
<path d="M189.444 36.0243H184.284L174.199 18.4846V36.0243H169.391V11.3313H174.802L184.636 28.5695V11.3313H189.444V36.0243Z" fill="black"/>
<path d="M208.779 11.3313V15.7037H201.392V36.0243H196.198V15.7037H188.777V11.3313H208.779Z" fill="black"/>
<path d="M71.5204 45.9448V47.5991C71.5204 47.9565 71.5595 48.1784 71.6376 48.265C71.7437 48.3879 71.9043 48.4493 72.1193 48.4493H72.337V48.6042H69.9038V48.4493H70.1174C70.3575 48.4493 70.5292 48.3711 70.6325 48.2147C70.6883 48.1282 70.7163 47.923 70.7163 47.5991V43.9303C70.7163 43.5729 70.6786 43.351 70.6032 43.2644C70.4943 43.1416 70.3323 43.0801 70.1174 43.0801H69.9038V42.9252H71.9852C72.4934 42.9252 72.8941 42.9782 73.1872 43.0843C73.4804 43.1876 73.7275 43.3635 73.9285 43.612C74.1295 43.8605 74.2301 44.1551 74.2301 44.4957C74.2301 44.9592 74.0765 45.3361 73.7694 45.6265C73.465 45.9169 73.0337 46.0621 72.4753 46.0621C72.3384 46.0621 72.1905 46.0523 72.0313 46.0327C71.8722 46.0132 71.7018 45.9839 71.5204 45.9448ZM71.5204 45.7061C71.6683 45.734 71.7996 45.7549 71.914 45.7689C72.0285 45.7829 72.1262 45.7898 72.2072 45.7898C72.4976 45.7898 72.7475 45.6782 72.9569 45.4548C73.1691 45.2286 73.2752 44.9369 73.2752 44.5795C73.2752 44.3338 73.2249 44.1062 73.1244 43.8968C73.0239 43.6846 72.8815 43.5269 72.6972 43.4236C72.5129 43.3175 72.3035 43.2644 72.069 43.2644C71.9266 43.2644 71.7437 43.2909 71.5204 43.344V45.7061Z" fill="black"/>
<path d="M85.6775 43.2351V45.4799H86.9255C87.2494 45.4799 87.4658 45.4311 87.5747 45.3333C87.7199 45.2049 87.8008 44.9787 87.8176 44.6549H87.9725V46.6316H87.8176C87.7785 46.3552 87.7394 46.1779 87.7003 46.0998C87.6501 46.002 87.5677 45.9253 87.4532 45.8694C87.3387 45.8136 87.1628 45.7856 86.9255 45.7856H85.6775V47.6577C85.6775 47.909 85.6886 48.0626 85.711 48.1184C85.7333 48.1715 85.7724 48.2147 85.8282 48.2482C85.8841 48.279 85.9902 48.2943 86.1465 48.2943H87.1098C87.4309 48.2943 87.664 48.272 87.8092 48.2273C87.9544 48.1826 88.094 48.0947 88.228 47.9635C88.4011 47.7903 88.5784 47.5293 88.7599 47.1803H88.9274L88.4374 48.6042H84.0609V48.4493H84.2619C84.3959 48.4493 84.5229 48.4172 84.643 48.3529C84.7324 48.3083 84.7924 48.2413 84.8231 48.1519C84.8566 48.0626 84.8734 47.8797 84.8734 47.6033V43.9136C84.8734 43.5534 84.8371 43.3314 84.7645 43.2477C84.664 43.136 84.4964 43.0801 84.2619 43.0801H84.0609V42.9252H88.4374L88.5002 44.169H88.3369C88.2783 43.8703 88.2127 43.6651 88.1401 43.5534C88.0703 43.4417 87.9656 43.3566 87.826 43.2979C87.7143 43.256 87.5174 43.2351 87.2354 43.2351H85.6775Z" fill="black"/>
<path d="M104.274 48.6042H102.758L100.836 45.949C100.693 45.9546 100.577 45.9574 100.488 45.9574C100.452 45.9574 100.413 45.9574 100.371 45.9574C100.329 45.9546 100.285 45.9518 100.241 45.949V47.5991C100.241 47.9565 100.28 48.1784 100.358 48.265C100.464 48.3879 100.623 48.4493 100.836 48.4493H101.057V48.6042H98.6242V48.4493H98.8378C99.0779 48.4493 99.2496 48.3711 99.3529 48.2147C99.4116 48.1282 99.4409 47.923 99.4409 47.5991V43.9303C99.4409 43.5729 99.4018 43.351 99.3236 43.2644C99.2147 43.1416 99.0528 43.0801 98.8378 43.0801H98.6242V42.9252H100.693C101.296 42.9252 101.74 42.9699 102.025 43.0592C102.313 43.1458 102.555 43.3077 102.754 43.545C102.955 43.7796 103.055 44.0602 103.055 44.3868C103.055 44.7358 102.941 45.0388 102.712 45.2956C102.486 45.5525 102.134 45.734 101.656 45.8401L102.829 47.4693C103.097 47.8434 103.327 48.0919 103.52 48.2147C103.713 48.3376 103.964 48.4158 104.274 48.4493V48.6042ZM100.241 45.6851C100.294 45.6851 100.34 45.6865 100.379 45.6893C100.418 45.6893 100.45 45.6893 100.475 45.6893C101.017 45.6893 101.425 45.5721 101.698 45.3375C101.975 45.103 102.113 44.8042 102.113 44.4413C102.113 44.0867 102.001 43.7991 101.778 43.5785C101.557 43.3552 101.264 43.2435 100.898 43.2435C100.736 43.2435 100.517 43.27 100.241 43.323V45.6851Z" fill="black"/>
<path d="M115.303 43.2351V45.4674H116.337C116.574 45.4674 116.747 45.4157 116.856 45.3124C116.968 45.2063 117.042 44.9983 117.078 44.6884H117.233V46.6107H117.078C117.076 46.3901 117.046 46.2282 116.99 46.1249C116.937 46.0216 116.862 45.9448 116.764 45.8945C116.669 45.8415 116.527 45.815 116.337 45.815H115.303V47.5991C115.303 47.8867 115.321 48.0765 115.357 48.1687C115.385 48.2385 115.444 48.2985 115.533 48.3488C115.656 48.4158 115.784 48.4493 115.918 48.4493H116.123V48.6042H113.686V48.4493H113.887C114.121 48.4493 114.292 48.3809 114.398 48.2441C114.465 48.1547 114.498 47.9397 114.498 47.5991V43.9303C114.498 43.6427 114.48 43.4529 114.444 43.3607C114.416 43.2909 114.359 43.2309 114.272 43.1807C114.152 43.1136 114.024 43.0801 113.887 43.0801H113.686V42.9252H117.912L117.966 44.1732H117.82C117.747 43.908 117.662 43.7139 117.564 43.5911C117.469 43.4654 117.351 43.3747 117.208 43.3189C117.069 43.263 116.851 43.2351 116.555 43.2351H115.303Z" fill="black"/>
<path d="M131.763 43.0801V42.9252H133.773V43.0801H133.56C133.336 43.0801 133.165 43.1737 133.045 43.3607C132.986 43.4473 132.957 43.6483 132.957 43.9638V46.2673C132.957 46.8369 132.899 47.2794 132.785 47.5949C132.673 47.9076 132.451 48.1771 132.119 48.4032C131.79 48.6266 131.34 48.7383 130.771 48.7383C130.151 48.7383 129.68 48.6308 129.359 48.4158C129.038 48.2008 128.81 47.9118 128.676 47.5488C128.587 47.3003 128.542 46.8341 128.542 46.15V43.9303C128.542 43.5813 128.494 43.3524 128.396 43.2435C128.301 43.1346 128.146 43.0801 127.931 43.0801H127.717V42.9252H130.172V43.0801H129.954C129.719 43.0801 129.552 43.1541 129.451 43.3021C129.381 43.4026 129.347 43.612 129.347 43.9303V46.4055C129.347 46.6261 129.366 46.8787 129.405 47.1635C129.447 47.4483 129.521 47.6703 129.627 47.8294C129.733 47.9886 129.885 48.1198 130.084 48.2231C130.285 48.3264 130.53 48.3781 130.821 48.3781C131.192 48.3781 131.524 48.2971 131.818 48.1352C132.111 47.9732 132.31 47.7666 132.416 47.5153C132.525 47.2613 132.58 46.8327 132.58 46.2296V43.9303C132.58 43.5757 132.541 43.3538 132.462 43.2644C132.354 43.1416 132.192 43.0801 131.977 43.0801H131.763Z" fill="black"/>
<path d="M146.728 48.6042L144.534 43.8256V47.62C144.534 47.969 144.572 48.1868 144.647 48.2734C144.75 48.3906 144.914 48.4493 145.137 48.4493H145.338V48.6042H143.361V48.4493H143.562C143.802 48.4493 143.973 48.3767 144.073 48.2315C144.135 48.1422 144.165 47.9383 144.165 47.62V43.9094C144.165 43.6581 144.137 43.4766 144.082 43.3649C144.043 43.284 143.97 43.2169 143.864 43.1639C143.761 43.1081 143.593 43.0801 143.361 43.0801V42.9252H144.969L147.03 47.3687L149.057 42.9252H150.665V43.0801H150.468C150.226 43.0801 150.054 43.1527 149.953 43.2979C149.892 43.3873 149.861 43.5911 149.861 43.9094V47.62C149.861 47.969 149.9 48.1868 149.978 48.2734C150.082 48.3906 150.245 48.4493 150.468 48.4493H150.665V48.6042H148.253V48.4493H148.454C148.697 48.4493 148.867 48.3767 148.965 48.2315C149.026 48.1422 149.057 47.9383 149.057 47.62V43.8256L146.867 48.6042H146.728Z" fill="black"/>
<path d="M161.991 43.2351V45.4799H163.239C163.563 45.4799 163.78 45.4311 163.888 45.3333C164.034 45.2049 164.115 44.9787 164.131 44.6549H164.286V46.6316H164.131C164.092 46.3552 164.053 46.1779 164.014 46.0998C163.964 46.002 163.881 45.9253 163.767 45.8694C163.653 45.8136 163.477 45.7856 163.239 45.7856H161.991V47.6577C161.991 47.909 162.002 48.0626 162.025 48.1184C162.047 48.1715 162.086 48.2147 162.142 48.2482C162.198 48.279 162.304 48.2943 162.46 48.2943H163.424C163.745 48.2943 163.978 48.272 164.123 48.2273C164.268 48.1826 164.408 48.0947 164.542 47.9635C164.715 47.7903 164.892 47.5293 165.074 47.1803H165.241L164.751 48.6042H160.375V48.4493H160.576C160.71 48.4493 160.837 48.4172 160.957 48.3529C161.046 48.3083 161.106 48.2413 161.137 48.1519C161.17 48.0626 161.187 47.8797 161.187 47.6033V43.9136C161.187 43.5534 161.151 43.3314 161.078 43.2477C160.978 43.136 160.81 43.0801 160.576 43.0801H160.375V42.9252H164.751L164.814 44.169H164.651C164.592 43.8703 164.526 43.6651 164.454 43.5534C164.384 43.4417 164.279 43.3566 164.14 43.2979C164.028 43.256 163.831 43.2351 163.549 43.2351H161.991Z" fill="black"/>
<path d="M180.588 48.6042H179.072L177.149 45.949C177.007 45.9546 176.891 45.9574 176.802 45.9574C176.765 45.9574 176.726 45.9574 176.684 45.9574C176.643 45.9546 176.599 45.9518 176.555 45.949V47.5991C176.555 47.9565 176.594 48.1784 176.672 48.265C176.778 48.3879 176.937 48.4493 177.149 48.4493H177.371V48.6042H174.938V48.4493H175.152C175.392 48.4493 175.563 48.3711 175.667 48.2147C175.725 48.1282 175.755 47.923 175.755 47.5991V43.9303C175.755 43.5729 175.716 43.351 175.637 43.2644C175.529 43.1416 175.367 43.0801 175.152 43.0801H174.938V42.9252H177.007C177.61 42.9252 178.054 42.9699 178.339 43.0592C178.626 43.1458 178.869 43.3077 179.067 43.545C179.268 43.7796 179.369 44.0602 179.369 44.3868C179.369 44.7358 179.255 45.0388 179.026 45.2956C178.799 45.5525 178.448 45.734 177.97 45.8401L179.143 47.4693C179.411 47.8434 179.641 48.0919 179.834 48.2147C180.027 48.3376 180.278 48.4158 180.588 48.4493V48.6042ZM176.555 45.6851C176.608 45.6851 176.654 45.6865 176.693 45.6893C176.732 45.6893 176.764 45.6893 176.789 45.6893C177.331 45.6893 177.738 45.5721 178.012 45.3375C178.288 45.103 178.427 44.8042 178.427 44.4413C178.427 44.0867 178.315 43.7991 178.092 43.5785C177.871 43.3552 177.578 43.2435 177.212 43.2435C177.05 43.2435 176.831 43.27 176.555 43.323V45.6851Z" fill="black"/>
<path d="M192.508 48.4493V48.6042H190.075V48.4493H190.276C190.511 48.4493 190.681 48.3809 190.787 48.2441C190.854 48.1547 190.888 47.9397 190.888 47.5991V43.9303C190.888 43.6427 190.869 43.4529 190.833 43.3607C190.805 43.2909 190.748 43.2309 190.661 43.1807C190.539 43.1136 190.41 43.0801 190.276 43.0801H190.075V42.9252H192.508V43.0801H192.303C192.071 43.0801 191.903 43.1485 191.796 43.2854C191.727 43.3747 191.692 43.5897 191.692 43.9303V47.5991C191.692 47.8867 191.71 48.0765 191.746 48.1687C191.774 48.2385 191.833 48.2985 191.922 48.3488C192.042 48.4158 192.169 48.4493 192.303 48.4493H192.508Z" fill="black"/>
<path d="M203.859 43.2351V45.4799H205.108C205.431 45.4799 205.648 45.4311 205.757 45.3333C205.902 45.2049 205.983 44.9787 206 44.6549H206.155V46.6316H206C205.96 46.3552 205.921 46.1779 205.882 46.0998C205.832 46.002 205.75 45.9253 205.635 45.8694C205.521 45.8136 205.345 45.7856 205.108 45.7856H203.859V47.6577C203.859 47.909 203.871 48.0626 203.893 48.1184C203.915 48.1715 203.954 48.2147 204.01 48.2482C204.066 48.279 204.172 48.2943 204.329 48.2943H205.292C205.613 48.2943 205.846 48.272 205.991 48.2273C206.136 48.1826 206.276 48.0947 206.41 47.9635C206.583 47.7903 206.76 47.5293 206.942 47.1803H207.109L206.619 48.6042H202.243V48.4493H202.444C202.578 48.4493 202.705 48.4172 202.825 48.3529C202.914 48.3083 202.974 48.2413 203.005 48.1519C203.039 48.0626 203.055 47.8797 203.055 47.6033V43.9136C203.055 43.5534 203.019 43.3314 202.946 43.2477C202.846 43.136 202.678 43.0801 202.444 43.0801H202.243V42.9252H206.619L206.682 44.169H206.519C206.46 43.8703 206.395 43.6651 206.322 43.5534C206.252 43.4417 206.148 43.3566 206.008 43.2979C205.896 43.256 205.699 43.2351 205.417 43.2351H203.859Z" fill="black"/>
<path d="M12.9976 9.0273H27.5945V14.2462H12.9976V21.9724H29.3837V27.3745H6.86177V7.43359H12.9976V9.0273Z" fill="black"/>
<path d="M44.6648 13.8827L53.6787 28.2412H46.641L41.3718 18.7945L35.8016 28.2412H31.527V24.3395L37.9845 14.1089L33.821 7.43359H40.2276L41.3718 9.51703L42.5462 7.43359H48.7557L44.6648 13.8827Z" fill="black"/>
<path d="M17.5313 30.5535C20.4544 30.5535 22.9448 31.3314 25.0023 32.8871C27.0722 34.4301 28.1575 36.6757 28.2578 39.6238H22.6877C22.5873 37.9553 21.8596 36.7698 20.5048 36.0672C19.6016 35.6031 18.4787 35.3709 17.1365 35.3709C15.6436 35.3709 14.4517 35.6722 13.561 36.2744C12.6703 36.8766 12.2247 37.7168 12.2247 38.7956C12.2247 39.7867 12.6638 40.5272 13.542 41.0164C14.1065 41.3426 15.3109 41.7249 17.1549 42.164L21.9349 43.3121C24.03 43.8139 25.6106 44.4852 26.677 45.3257C28.0696 46.4229 28.8768 47.9326 29.0982 49.855H23.0255C22.8489 49.6468 22.6301 49.46 22.3677 49.296C21.5648 48.8068 20.3037 48.3741 18.585 47.9977L15.6494 47.3393C12.7642 46.687 10.7695 45.9781 9.66549 45.2129C7.79627 43.9333 6.86175 41.9322 6.8617 39.21C6.8617 36.7261 7.76475 34.6623 9.57111 33.0188C11.3776 31.3754 14.0312 30.5535 17.5313 30.5535Z" fill="black"/>
<path d="M38.0717 31.328C37.7607 32.5386 37.6049 33.9303 37.6049 35.5033C37.6049 38.6145 38.2446 40.9479 39.5242 42.5035C40.8163 44.0466 42.4533 44.8181 44.4354 44.8182C46.4678 44.8182 48.0173 44.1533 49.0836 42.8235C49.6732 42.1085 50.1628 41.036 50.5517 39.6059H53.8798V45.4146C53.4548 45.9741 52.9792 46.4972 52.452 46.9826C50.382 48.8768 47.7349 49.8238 44.5108 49.8238C40.5215 49.8238 37.3853 48.5443 35.1021 45.9853C32.8189 43.4135 31.6768 39.8881 31.6768 35.4095C31.6768 33.9478 31.7965 32.5874 32.0331 31.328H38.0717Z" fill="black"/>
</svg>
