<svg width="77" height="71" viewBox="0 0 77 71" fill="none" xmlns="http://www.w3.org/2000/svg">
<path d="M0 4C0 1.79086 1.79086 0 4 0H73C75.2091 0 77 1.79086 77 4V67C77 69.2091 75.2091 71 73 71H4C1.79086 71 0 69.2091 0 67V4Z" fill="white"/>
<path d="M15.9609 10.3633H34.8975V17.1338H15.9609V27.1582H37.2188V34.167H8V8H15.9609V10.3633Z" fill="black"/>
<path d="M57.0449 16.3721L68.7393 35H59.6084L52.7725 22.7441L45.5459 35H40V29.9385L48.3779 16.665L42.9727 8H51.2852L52.7725 10.708L54.2988 8H62.3555L57.0449 16.3721Z" fill="black"/>
<path d="M21.8428 38C25.635 38 28.8659 39.0092 31.5352 41.0273C34.2206 43.0293 35.6286 45.9428 35.7588 49.7676H28.5322C28.402 47.6029 27.4579 46.0648 25.7002 45.1533C24.5284 44.5511 23.0715 44.25 21.3301 44.25C19.3933 44.25 17.847 44.6407 16.6914 45.4219C15.5358 46.2031 14.958 47.2936 14.958 48.6934C14.958 49.9792 15.5277 50.9395 16.667 51.5742C17.3995 51.9974 18.9621 52.4939 21.3545 53.0635L27.5557 54.5527C30.2736 55.2038 32.3246 56.0746 33.708 57.165C35.5133 58.5875 36.5565 60.5449 36.8447 63.0361H28.9658C28.7375 62.7682 28.4553 62.5277 28.1172 62.3164C27.0756 61.6817 25.4397 61.1201 23.21 60.6318L19.4014 59.7773C15.658 58.931 13.07 58.0113 11.6377 57.0186C9.21257 55.3584 8 52.7624 8 49.2305C8 46.0078 9.17188 43.3304 11.5156 41.1982C13.8594 39.0662 17.3018 38 21.8428 38Z" fill="black"/>
<path d="M48.4922 39C48.0878 40.5718 47.8848 42.379 47.8848 44.4219C47.8848 48.4583 48.7149 51.4857 50.375 53.5039C52.0514 55.5058 54.1756 56.5068 56.7471 56.5068C59.3837 56.5068 61.3939 55.6441 62.7773 53.9189C63.5423 52.9912 64.1771 51.5996 64.6816 49.7441H69V57.2793C68.4484 58.0055 67.8316 58.6845 67.1475 59.3145C64.4619 61.7721 61.0276 63.001 56.8447 63.001C51.6691 63.0009 47.5999 61.3408 44.6377 58.0205C41.6755 54.6839 40.1943 50.1103 40.1943 44.2998C40.1943 42.4016 40.3497 40.6352 40.6572 39H48.4922Z" fill="black"/>
</svg>
