<svg width="48" height="44" viewBox="0 0 48 44" fill="none" xmlns="http://www.w3.org/2000/svg">
<path d="M24 22C22.6111 22 21.4306 21.5139 20.4583 20.5417C19.4861 19.5694 19 18.3889 19 17C19 15.6111 19.4861 14.4306 20.4583 13.4583C21.4306 12.4861 22.6111 12 24 12C25.3889 12 26.5694 12.4861 27.5417 13.4583C28.5139 14.4306 29 15.6111 29 17C29 18.3889 28.5139 19.5694 27.5417 20.5417C26.5694 21.5139 25.3889 22 24 22ZM14 32V28.6667C14 28.1343 14.1447 27.6308 14.434 27.1563C14.7234 26.6817 15.1227 26.2824 15.6319 25.9583C16.9051 25.2176 18.251 24.6505 19.6698 24.2569C21.0885 23.8634 22.5295 23.6667 23.9927 23.6667C25.4559 23.6667 26.8993 23.8634 28.3229 24.2569C29.7465 24.6505 31.0949 25.2176 32.3681 25.9583C32.8773 26.2593 33.2766 26.6528 33.566 27.1389C33.8553 27.625 34 28.1343 34 28.6667V32H14ZM16.5 29.5H31.5V28.6667C31.5 28.5468 31.4649 28.4378 31.3948 28.3399C31.3249 28.2418 31.2326 28.1655 31.1181 28.1111C30.0532 27.463 28.919 26.9769 27.7153 26.6528C26.5116 26.3287 25.2731 26.1667 24 26.1667C22.7269 26.1667 21.4884 26.3287 20.2847 26.6528C19.081 26.9769 17.9468 27.463 16.8819 28.1111C16.7662 28.2037 16.6736 28.2931 16.6042 28.3792C16.5347 28.4655 16.5 28.5613 16.5 28.6667V29.5ZM24.0073 19.5C24.6969 19.5 25.2847 19.2545 25.7708 18.7635C26.2569 18.2726 26.5 17.6823 26.5 16.9927C26.5 16.3031 26.2545 15.7153 25.7635 15.2292C25.2726 14.7431 24.6823 14.5 23.9927 14.5C23.3031 14.5 22.7153 14.7455 22.2292 15.2365C21.7431 15.7274 21.5 16.3177 21.5 17.0073C21.5 17.6969 21.7455 18.2847 22.2365 18.7708C22.7274 19.2569 23.3177 19.5 24.0073 19.5Z" fill="white"/>
</svg>
