<svg width="48" height="43" viewBox="0 0 48 43" fill="none" xmlns="http://www.w3.org/2000/svg">
<path d="M16.4903 34C15.8023 34 15.2153 33.7705 14.7292 33.3115C14.2431 32.8525 14 32.3008 14 31.6562V16.8125C14 16.168 14.2448 15.6162 14.7344 15.1572C15.224 14.6982 15.8125 14.4688 16.5 14.4688H19V13.9479C19 12.6458 19.4688 11.4957 20.4063 10.4974C21.3438 9.49913 22.5417 9 24 9C25.3889 9 26.5694 9.45573 27.5417 10.3672C28.5139 11.2786 29 12.3854 29 13.6875V14.4688H31.5C32.1875 14.4688 32.776 14.6982 33.2656 15.1572C33.7552 15.6162 34 16.168 34 16.8125V31.6562C34 32.3008 33.7551 32.8525 33.2653 33.3115C32.7755 33.7705 32.1866 34 31.4986 34H16.4903ZM16.5 31.6562H31.5V16.8125H29V18.7656C29 19.0977 28.8809 19.376 28.6427 19.6006C28.4045 19.8252 28.1094 19.9375 27.7573 19.9375C27.4052 19.9375 27.1076 19.8252 26.8646 19.6006C26.6215 19.376 26.5 19.0977 26.5 18.7656V16.8125H21.5V18.7656C21.5 19.0977 21.3809 19.376 21.1427 19.6006C20.9045 19.8252 20.6094 19.9375 20.2573 19.9375C19.9052 19.9375 19.6076 19.8252 19.3646 19.6006C19.1215 19.376 19 19.0977 19 18.7656V16.8125H16.5V31.6562ZM21.5 14.4688H26.5V13.6875C26.5 13.043 26.2545 12.4912 25.7635 12.0322C25.2726 11.5732 24.6823 11.3438 23.9927 11.3438C23.3031 11.3438 22.7153 11.5732 22.2292 12.0322C21.7431 12.4912 21.5 13.043 21.5 13.6875V14.4688Z" fill="white"/>
</svg>
